<?xml version="1.0" encoding="UTF-8"?>
<svg id="Layer_1" data-name="Layer 1" xmlns="http://www.w3.org/2000/svg" viewBox="0 0 104.28 131.17">
  <defs>
    <style>
      .cls-1 {
        fill: none;
        stroke: #d4af34;
        stroke-miterlimit: 10;
        stroke-width: .5px;
      }
    </style>
  </defs>
  <path class="cls-1" d="M53.89,1.66l-1.75-1.35-1.75,1.35c-.28.22-15.53,12.44-29.14,29.35l-.05-.03s-.09.14-.23.37C10.05,45.01.25,61.67.25,77.56c0,13.63,4.72,27.34,13.93,37.45.14.25.28.5.5.7.27.25.55.46.82.7,8.65,8.77,20.91,14.5,36.64,14.5,34.07,0,51.89-26.84,51.89-53.36C104.03,41.81,54.39,2.05,53.89,1.66M14.24,51.29c-1.41,10.02-.28,22.55,8.62,34.84,11.32,15.63,26.56,19.17,34.19,19.94-1.64,1.77-3.45,3.48-5.47,5.13-7.49,6.1-23.12,9.61-32.98.33-.04-.04-.09-.05-.13-.08-7.51-7.79-12.49-18.99-12.49-33.9,0-8.5,3.32-17.54,8.25-26.26M51.54,79.61c-10.17-10.15-16.23-16.1-19.09-18.88l19.87-22.08c4.44,4.35,14.67,15.72,15.72,28.85.93,11.61-.35,20.9-4.18,28.74-1.64-3.97-5.15-9.46-12.32-16.63M52.14,125.18c-5.06,0-10.2-.78-15.13-2.36,7.22-.73,13.92-3.69,18.2-7.17,14.77-12.03,20.32-26.57,18.56-48.61-1.53-19.09-19.03-34.04-19.78-34.67l-2.12-1.79-27.38,30.43,2,1.92c.06.06,6.1,5.86,20.99,20.73,8.85,8.84,11.18,14.31,11.79,16.85-5.62-.28-20.76-2.53-31.77-17.74-15.97-22.05-3.97-44.49-1.78-48.19,9.72-12.15,20.56-22.19,26.39-26.96,8.57,7.2,46.18,40.51,46.18,69.94,0,32.72-23.92,47.63-46.15,47.63"/>
</svg>
